<?xml version="1.0" encoding="utf-8"?>
<!-- Generator: Adobe Illustrator 23.0.3, SVG Export Plug-In . SVG Version: 6.00 Build 0)  -->
<svg version="1.1" id="Warstwa_1" xmlns="http://www.w3.org/2000/svg" xmlns:xlink="http://www.w3.org/1999/xlink" x="0px" y="0px"
	 viewBox="0 0 100 125" style="enable-background:new 0 0 100 125;" xml:space="preserve">
<style type="text/css">
	.st0{display:none;enable-background:new    ;}
	.st1{font-family:'HelveticaNeue-Bold';}
	.st2{font-size:5px;}
</style>
<g>
	<g>
		<g>
			<path d="M49.3,4.8c-14.3,0-26,11.6-26,26c0,5.8,1.9,11.2,5.2,15.6c0,0,0,0,0,0c0.6,0.9,20.5,30.1,20.8,49.4
				c0.3-19.4,20.1-48.5,20.8-49.4c0,0,0,0,0,0c3.2-4.3,5.2-9.7,5.2-15.6C75.3,16.4,63.7,4.8,49.3,4.8z M49.3,18.5
				c6.5,0,11.7,5.3,11.7,11.7S55.8,42,49.3,42s-11.7-5.3-11.7-11.7C37.6,23.7,42.8,18.5,49.3,18.5z"/>
		</g>
	</g>
</g>
<text transform="matrix(1 0 0 1 0 115)" class="st0 st1 st2">Created by Sergi Delgado</text>
<text transform="matrix(1 0 0 1 0 120)" class="st0 st1 st2">from the Noun Project</text>
</svg>
